<svg width="373" height="229" viewBox="0 0 373 229" fill="none" xmlns="http://www.w3.org/2000/svg">
<g filter="url(#filter0_d_17_51)">
<path d="M368.308 164.44C360.522 191.594 333.236 210.501 295.166 219.003C257.119 227.499 208.44 225.562 158.159 211.144C107.879 196.726 65.5697 172.573 37.8067 145.206C10.0266 117.822 -3.09424 87.3285 4.69189 60.175C12.478 33.0216 39.7642 14.1145 77.8344 5.61272C115.881 -2.88387 164.56 -0.946236 214.841 13.4715C265.121 27.8892 307.43 52.042 335.193 79.4092C362.974 106.793 376.094 137.287 368.308 164.44Z" stroke="url(#paint0_linear_17_51)" stroke-opacity="0.8" stroke-width="1.10622" shape-rendering="crispEdges"/>
</g>
<defs>
<filter id="filter0_d_17_51" x="6.49505e-05" y="0" width="373" height="228.455" filterUnits="userSpaceOnUse" color-interpolation-filters="sRGB">
<feFlood flood-opacity="0" result="BackgroundImageFix"/>
<feColorMatrix in="SourceAlpha" type="matrix" values="0 0 0 0 0 0 0 0 0 0 0 0 0 0 0 0 0 0 127 0" result="hardAlpha"/>
<feOffset dy="1.91693"/>
<feGaussianBlur stdDeviation="0.958464"/>
<feComposite in2="hardAlpha" operator="out"/>
<feColorMatrix type="matrix" values="0 0 0 0 0.844886 0 0 0 0 0.5125 0 0 0 0 1 0 0 0 1 0"/>
<feBlend mode="normal" in2="BackgroundImageFix" result="effect1_dropShadow_17_51"/>
<feBlend mode="normal" in="SourceGraphic" in2="effect1_dropShadow_17_51" result="shape"/>
</filter>
<linearGradient id="paint0_linear_17_51" x1="18.7294" y1="37.8676" x2="366.221" y2="177.196" gradientUnits="userSpaceOnUse">
<stop stop-color="#EBA9FF"/>
<stop offset="1" stop-color="#FFB0FA"/>
</linearGradient>
</defs>
</svg>
