<svg width="52" height="52" viewBox="0 0 52 52" fill="none" xmlns="http://www.w3.org/2000/svg">
<path d="M0 32.2638C1.75493 32.1828 3.23988 31.5078 4.45483 30.2389C5.66979 28.9699 6.29076 27.458 6.29076 25.703C6.29076 27.458 6.88474 28.9699 8.0997 30.2389C9.31465 31.5078 10.7996 32.1828 12.5545 32.2638C10.7996 32.3448 9.31465 33.0198 8.0997 34.2887C7.5123 34.8869 7.04984 35.5961 6.73928 36.3748C6.42871 37.1535 6.27624 37.9863 6.29076 38.8245C6.29076 37.0696 5.69679 35.5577 4.45483 34.2887C3.23988 33.0198 1.75493 32.3448 0 32.2638ZM6.29076 12.8245C9.69264 12.6625 12.5815 11.3396 14.9574 8.85567C17.3333 6.37176 18.5213 3.42887 18.5213 0C18.5213 3.42887 19.7093 6.37176 22.0852 8.85567C24.4611 11.3396 27.35 12.6355 30.7788 12.8245C28.5379 12.9325 26.486 13.5535 24.5961 14.7414C22.7331 15.9024 21.2482 17.4683 20.1412 19.4123C19.0613 21.3562 18.5213 23.4351 18.5213 25.703C18.5213 22.2742 17.3333 19.3043 14.9574 16.8204C12.5815 14.3095 9.69264 12.9865 6.29076 12.8245ZM15.2544 41.9024C17.8193 41.7944 20.0062 40.7955 21.7882 38.9325C23.5701 37.0696 24.4611 34.8557 24.4611 32.2638C24.4611 34.8557 25.352 37.0696 27.134 38.9325C28.9159 40.7955 31.0758 41.7944 33.6407 41.9024C31.0758 42.0104 28.9159 43.0094 27.134 44.8723C25.352 46.7352 24.4611 48.9492 24.4611 51.5411C24.4611 48.9492 23.5701 46.7352 21.7882 44.8723C20.0851 43.0623 17.738 41.9955 15.2544 41.9024ZM33.6407 29.1049C36.2056 28.9969 38.3656 27.9979 40.1475 26.135C41.9294 24.2721 42.7934 22.0582 42.7934 19.4393C42.7934 22.0312 43.6844 24.2451 45.4663 26.108C47.2482 27.9709 49.4351 28.9699 52 29.0779C49.4351 29.1859 47.2482 30.1849 45.4663 32.0478C43.6844 33.9107 42.7934 36.1246 42.7934 38.7165C42.7934 36.1246 41.9024 33.9107 40.1475 32.0478C38.3656 30.2119 36.2056 29.2129 33.6407 29.1049Z" fill="white"/>
</svg>
